<svg xmlns="http://www.w3.org/2000/svg" width="150" height="102" viewBox="0 0 150 102" fill="none"><g clip-path="url(#clip0_454_1738)"><path d="M71.8199 73.0485C67.1087 73.0485 63.6197 70.6234 63.4718 70.5244L62.2201 69.6435L63.9745 67.1393L65.2262 68.0202C65.2262 68.0202 68.1042 69.9899 71.8298 69.9899C74.5501 69.9899 77.4773 69.0892 77.4773 67.1096C77.4773 65.902 76.7775 64.546 71.5834 63.6057L71.4947 63.5859C67.4438 62.8534 62.8607 62.0319 62.8607 57.7955C62.8607 54.539 66.5174 52.1733 71.5538 52.1733C75.5258 52.1733 78.7783 53.8362 78.9163 53.9055L80.2765 54.6083L78.8868 57.3402L77.5266 56.6374C77.5266 56.6374 74.7472 55.2418 71.5538 55.2418C68.3604 55.2418 65.9063 56.4097 65.9063 57.8054C65.9063 59.3594 68.3309 59.9137 72.0368 60.5867H72.1156C76.0285 61.3093 80.5229 62.6851 80.5229 67.1195C80.5229 70.6729 77.024 73.0682 71.8199 73.0682V73.0485Z" fill="#686969"></path><path d="M144.19 72.7613C141.528 72.7613 139.064 71.2469 138.966 71.1776L137.675 70.3659L139.291 67.7627L140.582 68.5744C140.769 68.6833 142.484 69.6929 144.19 69.6929C145.254 69.6929 146.949 69.3662 146.949 68.4853C146.949 68.2181 146.949 67.644 143.923 67.1293C141.637 66.7333 138.177 66.1395 138.177 62.9919C138.177 60.5767 140.572 58.894 144.002 58.894C146.269 58.894 148.3 59.7552 148.388 59.7948L149.788 60.3986L148.585 63.2096L147.186 62.6058C147.127 62.5761 145.619 61.9526 144.012 61.9526C142.406 61.9526 141.233 62.497 141.233 62.982C141.233 63.5462 143.234 63.8926 144.426 64.1004C146.378 64.437 150.005 65.0606 150.005 68.4853C150.005 71.039 147.669 72.7613 144.199 72.7613H144.19Z" fill="#686969"></path><path d="M114.153 72.7616V58.8943H117.208V61.0422C118.549 59.4486 120.067 58.8745 121.476 58.8745C123.309 58.8745 124.847 59.7257 125.695 61.1709C127.646 58.9933 130.159 58.8745 130.662 58.8745C133.599 58.8745 135.58 60.9234 135.58 63.972V72.7517H132.525V63.972C132.525 63.0416 132.2 61.9429 130.662 61.9429C129.952 61.9429 126.414 62.2696 126.394 68.7825V72.7517H123.339V63.972C123.339 63.0416 123.014 61.9429 121.476 61.9429C120.767 61.9429 117.208 62.2795 117.208 68.8221V72.7616H114.153Z" fill="#686969"></path><path d="M92.0519 72.7614V63.9818C92.0519 63.0514 91.7267 61.9527 90.1891 61.9527C89.4795 61.9527 85.9214 62.2892 85.9214 68.8319V72.7416H82.866V51.6982H85.9214V61.0025C87.1633 59.5079 88.7501 58.8942 90.1891 58.8942C93.1262 58.8942 95.1073 60.9431 95.1073 63.9917V72.7713H92.0519V72.7614Z" fill="#686969"></path><path d="M108.17 72.7616V70.6137C106.78 72.3458 104.966 72.7616 104.217 72.7616H102.65C99.8608 72.7616 97.4067 70.1287 97.4067 67.1196V64.5461C97.4067 61.4183 99.9397 58.8745 103.044 58.8745H107.923C109.865 58.8745 111.215 60.2009 111.215 62.1013V72.7616H108.16H108.17ZM103.054 61.9429C101.605 61.9429 100.462 63.0911 100.462 64.5461V67.1196C100.462 68.6736 101.783 69.6635 103.015 69.6832H103.912C104.621 69.6931 108.17 69.3665 108.17 62.814V62.1013C108.17 62.0023 108.16 61.9726 108.16 61.9726C108.16 61.9726 108.11 61.9429 107.933 61.9429H103.054Z" fill="#686969"></path><path d="M56.275 55.7958C53.0816 55.7958 50.0755 54.2517 48.055 51.5594C45.2164 47.7882 44.5265 42.2948 46.0936 36.0689L46.1823 35.7125H49.3461L49.1884 36.3064C47.6804 41.8296 48.1437 46.5906 50.4894 49.7085C51.9383 51.6287 54.0475 52.7274 56.275 52.7274C58.808 52.7274 60.2667 51.2031 60.2667 48.5504V35.7125H63.3221V39.652C63.3221 44.7198 65.6185 46.5213 67.5898 46.5213C69.1273 46.5213 69.4526 45.4127 69.4526 44.4922V35.7125H72.508V39.6817C72.5277 46.1946 76.066 46.5213 76.7757 46.5213C78.3132 46.5213 78.6385 45.4127 78.6385 44.4922V35.7125H81.6938V42.6412C81.6938 46.4817 85.6166 46.5213 85.7841 46.5213H89.5097C91.0473 46.5213 91.3725 45.4127 91.3725 44.4922V38.9294C91.3725 37.029 92.7228 35.7026 94.6645 35.7026H99.5432C102.658 35.7026 105.181 38.2464 105.181 41.3743V42.6412C105.181 46.4817 109.104 46.5213 109.271 46.5213H112.839C114.012 46.5213 114.446 45.1454 114.446 44.215V35.7125H117.501V39.6421C117.501 44.7198 119.798 46.5213 121.769 46.5213C123.306 46.5213 123.632 45.4127 123.632 44.4922V35.7125H126.687V39.6817C126.697 46.1946 130.245 46.5213 130.955 46.5213C132.492 46.5213 132.817 45.4127 132.817 44.4922V35.7125H135.873V44.4922C135.873 47.5408 133.902 49.5897 130.955 49.5897C129.506 49.5897 127.544 49.0255 125.987 46.8875C125.613 48.1841 124.124 49.5897 121.769 49.5897C120.3 49.5897 118.092 48.9463 116.732 46.8182C116.259 48.6098 114.475 49.5897 112.839 49.5897H109.271C107.28 49.5897 105.082 48.7582 103.939 47.0954C103.328 48.6098 101.307 49.5897 99.9375 49.5897H98.3704C97.3552 49.5897 95.1671 49.1146 93.7183 46.9469C93.1466 48.689 91.3331 49.5897 89.4999 49.5897H85.7743C83.6454 49.5897 81.9698 48.8077 80.7082 47.3032C80.1859 48.877 78.4118 49.5897 76.7658 49.5897C75.3169 49.5897 73.2472 49.0057 71.7983 46.8875C71.2858 48.6593 69.4131 49.5897 67.5799 49.5897C66.2592 49.5897 64.5245 49.1146 63.3122 47.5705V48.5603C63.3122 52.955 60.5525 55.7958 56.275 55.7958ZM94.4279 38.8106C94.4279 38.8106 94.4181 38.8403 94.4181 38.9393V39.652C94.4181 46.1946 97.9761 46.5312 98.6858 46.5312H99.5728C100.795 46.4916 102.126 45.5117 102.126 43.9577V41.3842C102.126 39.9291 100.992 38.7809 99.5334 38.7809H94.6546C94.4772 38.7809 94.4279 38.8106 94.4181 38.8106H94.4279Z" fill="#686969"></path><path d="M121.187 34.4556C120.093 34.4556 119.206 33.5648 119.206 32.4661C119.206 31.3674 120.093 30.4766 121.187 30.4766C122.281 30.4766 123.168 31.3674 123.168 32.4661C123.168 33.5648 122.281 34.4556 121.187 34.4556Z" fill="#686969"></path><path d="M129.091 34.4556C127.997 34.4556 127.11 33.5648 127.11 32.4661C127.11 31.3674 127.997 30.4766 129.091 30.4766C130.185 30.4766 131.072 31.3674 131.072 32.4661C131.072 33.5648 130.185 34.4556 129.091 34.4556Z" fill="#686969"></path><path d="M125.13 31.0308C124.036 31.0308 123.149 30.14 123.149 29.0413C123.149 27.9426 124.036 27.0518 125.13 27.0518C126.224 27.0518 127.111 27.9426 127.111 29.0413C127.111 30.14 126.224 31.0308 125.13 31.0308Z" fill="#686969"></path><path d="M62.2255 78.9669H68.0307V80.7189H64.2263V82.3719H67.3999V84.1337H64.2263V87.4694H62.2255V78.957V78.9669Z" fill="#686969"></path><path d="M74.9199 84.3514H74.1019V87.4792H72.1011V78.9668H75.7478C76.7236 78.9668 77.5022 79.1945 78.0739 79.6399C78.6455 80.0853 78.9314 80.7089 78.9314 81.4908C78.9314 82.1045 78.7638 82.6489 78.4287 83.1141C78.0936 83.5793 77.5909 83.8763 76.901 84.0049L79.4931 87.4693H76.9996L74.9101 84.3415L74.9199 84.3514ZM75.5409 82.6588C75.9548 82.6588 76.2801 82.5796 76.5166 82.4113C76.7531 82.2431 76.8813 81.9956 76.8813 81.6591C76.8813 81.3225 76.7532 81.085 76.5068 80.9266C76.2603 80.7683 75.945 80.6891 75.5803 80.6891H74.1019V82.6588H75.5409Z" fill="#686969"></path><path d="M83.1202 78.9669H89.0141V80.7189H85.121V82.2432H88.2355V83.9952H85.121V85.7174H89.3591L89.0831 87.4694H83.13V78.957L83.1202 78.9669Z" fill="#686969"></path><path d="M93.3116 78.9669H99.2055V80.7189H95.3124V82.2432H98.4269V83.9952H95.3124V85.7174H99.5505L99.2745 87.4694H93.3214V78.957L93.3116 78.9669Z" fill="#686969"></path><path d="M109.029 86.4795L112.775 80.7188H109.069V78.9668H115.623V79.9665L111.868 85.7173H115.82L115.544 87.4693H109.029V86.4795Z" fill="#686969"></path><path d="M118.709 83.2429C118.709 82.2828 118.926 81.4613 119.359 80.7882C119.793 80.125 120.355 79.6202 121.035 79.2936C121.715 78.967 122.434 78.8086 123.193 78.8086C123.952 78.8086 124.652 78.9769 125.342 79.3134C126.032 79.6499 126.584 80.1448 127.017 80.808C127.451 81.4712 127.668 82.263 127.668 83.1935C127.668 84.1239 127.451 84.9751 127.017 85.6482C126.584 86.3213 126.032 86.8162 125.352 87.1428C124.672 87.4694 123.952 87.6278 123.203 87.6278C122.454 87.6278 121.735 87.4595 121.045 87.123C120.355 86.7865 119.793 86.2916 119.359 85.6284C118.926 84.9652 118.709 84.1734 118.709 83.2429ZM123.193 85.6977C123.637 85.6977 124.031 85.6086 124.396 85.4205C124.76 85.2325 125.046 84.9553 125.263 84.5792C125.48 84.2031 125.588 83.7477 125.588 83.2033C125.588 82.659 125.48 82.2432 125.263 81.8671C125.046 81.491 124.751 81.2138 124.386 81.0258C124.021 80.8377 123.627 80.7387 123.193 80.7387C122.76 80.7387 122.346 80.8377 121.981 81.0258C121.616 81.2138 121.33 81.5009 121.104 81.877C120.887 82.2531 120.779 82.7183 120.779 83.2528C120.779 83.7873 120.887 84.213 121.104 84.5792C121.321 84.9454 121.616 85.2226 121.981 85.4205C122.346 85.6086 122.75 85.7076 123.183 85.7076L123.193 85.6977Z" fill="#686969"></path><path d="M131.67 78.9668H133.425L137.328 84.094V78.9668H139.25V87.4792H137.495L133.592 82.3519V87.4792H131.67V78.9668Z" fill="#686969"></path><path d="M143.766 78.9669H149.66V80.7189H145.767V82.2432H148.881V83.9952H145.767V85.7174H150.005L149.729 87.4694H143.776V78.957L143.766 78.9669Z" fill="#686969"></path><path d="M64.0851 92.3787C64.3414 92.3787 64.5582 92.2897 64.7356 92.1115C64.913 91.9333 65.0017 91.7156 65.0017 91.4582C65.0017 91.2207 64.913 91.0029 64.7356 90.8346C64.5582 90.6565 64.3414 90.5674 64.0851 90.5674C63.8288 90.5674 63.6219 90.6565 63.4445 90.8247C63.2671 90.993 63.1783 91.2108 63.1783 91.4582C63.1783 91.7057 63.2671 91.9333 63.4346 92.1115C63.6022 92.2897 63.819 92.3787 64.0851 92.3787Z" fill="#686969"></path><path d="M66.3626 92.3787C66.6287 92.3787 66.8456 92.2897 67.0131 92.1115C67.1807 91.9333 67.2694 91.7156 67.2694 91.4582C67.2694 91.2009 67.1807 90.993 67.0131 90.8247C66.8357 90.6565 66.6287 90.5674 66.3725 90.5674C66.1162 90.5674 65.8994 90.6565 65.722 90.8346C65.5446 91.0128 65.4559 91.2207 65.4559 91.4582C65.4559 91.7156 65.5446 91.9333 65.722 92.1115C65.8994 92.2897 66.1162 92.3787 66.3725 92.3787H66.3626Z" fill="#686969"></path><path d="M66.7949 94.0216C66.3317 93.7742 65.8192 93.6455 65.2278 93.6455C64.6365 93.6455 64.1239 93.7742 63.6607 94.0216C63.2073 94.2691 62.8426 94.6254 62.5962 95.0708C62.34 95.5163 62.2119 96.021 62.2119 96.5951C62.2119 97.1692 62.34 97.7136 62.5962 98.1689C62.8525 98.6243 63.2073 98.9806 63.6607 99.228C64.1141 99.4755 64.6365 99.6042 65.2278 99.6042C65.8192 99.6042 66.3317 99.4755 66.7949 99.228C67.2483 98.9806 67.613 98.6243 67.8594 98.1689C68.1157 97.7136 68.2438 97.189 68.2438 96.5951C68.2438 96.0013 68.1157 95.5163 67.8594 95.0708C67.6031 94.6254 67.2483 94.279 66.7949 94.0216ZM66.0262 97.7037C65.8389 97.9611 65.5728 98.0898 65.2278 98.0898C64.8829 98.0898 64.6266 97.9611 64.4295 97.7037C64.2422 97.4464 64.1437 97.0703 64.1437 96.5852C64.1437 96.1299 64.2422 95.7736 64.4295 95.5162C64.6167 95.2688 64.8829 95.1401 65.2278 95.1401C65.5728 95.1401 65.829 95.2688 66.0262 95.5162C66.2134 95.7637 66.312 96.12 66.312 96.5852C66.312 97.0703 66.2134 97.4464 66.0262 97.7037Z" fill="#686969"></path><path d="M88.9485 97.4662C88.9288 97.3375 88.919 97.0999 88.9091 96.7634C88.9091 96.5259 88.9091 96.3378 88.8992 96.1992C88.8697 95.3381 88.574 94.6947 88.0319 94.279C87.4898 93.8534 86.7408 93.6455 85.7847 93.6455C84.6316 93.6455 83.7051 93.9622 82.9954 94.5858L83.8431 95.8231C84.1486 95.5855 84.4344 95.4173 84.7006 95.3084C84.9667 95.1995 85.2624 95.1401 85.5679 95.1401C86.0804 95.1401 86.4352 95.2787 86.6521 95.5459C86.8689 95.8231 86.9773 96.2487 86.9773 96.8426C86.9773 97.2979 87.0266 97.6839 87.1153 98.0205H71.9566V94.8828H70.0445V98.8222C70.0445 99.2478 70.0051 99.5745 69.9263 99.8021C69.8474 100.03 69.7094 100.188 69.5222 100.267C69.3349 100.356 69.0688 100.386 68.7238 100.376L68.9111 101.98C69.8376 102.009 70.557 101.821 71.0696 101.406C71.5821 100.99 71.8679 100.356 71.9369 99.525H87.7461C87.9432 99.525 88.1009 99.5349 88.229 99.5547C88.3572 99.5745 88.5641 99.624 88.85 99.7032L89.3329 98.2382C89.1851 98.0799 89.0865 97.9413 89.0372 97.8324C88.9781 97.7235 88.9485 97.5949 88.9288 97.4662H88.9485Z" fill="#686969"></path><path d="M97.6261 92.3787C97.8922 92.3787 98.109 92.2897 98.2766 92.1115C98.4441 91.9333 98.5328 91.7156 98.5328 91.4582C98.5328 91.2009 98.4441 90.993 98.2667 90.8247C98.0893 90.6565 97.8823 90.5674 97.6261 90.5674C97.3698 90.5674 97.153 90.6565 96.9756 90.8346C96.7982 91.0128 96.7095 91.2207 96.7095 91.4582C96.7095 91.7156 96.7982 91.9333 96.9756 92.1115C97.153 92.2897 97.3698 92.3787 97.6261 92.3787Z" fill="#686969"></path><path d="M95.348 92.3787C95.6043 92.3787 95.8211 92.2897 95.9985 92.1115C96.1759 91.9333 96.2646 91.7156 96.2646 91.4582C96.2646 91.2207 96.1759 91.0029 95.9985 90.8346C95.8211 90.6565 95.6043 90.5674 95.348 90.5674C95.0918 90.5674 94.8749 90.6565 94.7074 90.8247C94.53 90.993 94.4511 91.2108 94.4511 91.4582C94.4511 91.7057 94.5398 91.9333 94.7074 92.1115C94.8749 92.2897 95.0918 92.3787 95.3579 92.3787H95.348Z" fill="#686969"></path><path d="M124.985 92.6361C125.251 92.6361 125.468 92.547 125.635 92.3688C125.803 92.1906 125.891 91.9729 125.891 91.7155C125.891 91.4582 125.803 91.2503 125.635 91.0821C125.458 90.9138 125.251 90.8247 124.994 90.8247C124.738 90.8247 124.521 90.9138 124.344 91.092C124.167 91.2701 124.078 91.478 124.078 91.7155C124.078 91.9729 124.167 92.1906 124.344 92.3688C124.521 92.547 124.738 92.6361 124.994 92.6361H124.985Z" fill="#686969"></path><path d="M122.707 92.6361C122.963 92.6361 123.18 92.547 123.358 92.3688C123.535 92.1906 123.624 91.9729 123.624 91.7155C123.624 91.478 123.535 91.2602 123.358 91.092C123.18 90.9138 122.963 90.8247 122.707 90.8247C122.451 90.8247 122.244 90.9138 122.067 91.0821C121.889 91.2503 121.8 91.4681 121.8 91.7155C121.8 91.963 121.889 92.1906 122.057 92.3688C122.224 92.547 122.441 92.6361 122.707 92.6361Z" fill="#686969"></path><path d="M140.765 93.6258C141.021 93.6258 141.238 93.5367 141.416 93.3586C141.593 93.1804 141.682 92.9626 141.682 92.7053C141.682 92.4677 141.593 92.25 141.416 92.0817C141.238 91.9035 141.021 91.8145 140.765 91.8145C140.509 91.8145 140.282 91.9035 140.105 92.0817C139.927 92.2599 139.839 92.4677 139.839 92.7053C139.839 92.9626 139.927 93.1804 140.105 93.3586C140.282 93.5367 140.499 93.6258 140.765 93.6258Z" fill="#686969"></path><path d="M149.605 95.0611C149.339 94.6157 148.974 94.2693 148.511 94.0218C148.047 93.7744 147.515 93.6556 146.924 93.6556C146.333 93.6556 145.8 93.7744 145.337 94.0218C144.874 94.2693 144.519 94.6157 144.253 95.0611C143.997 95.5065 143.868 96.0212 143.868 96.5953C143.868 97.1694 143.987 97.6445 144.213 98.0405H142.883C142.469 98.0405 142.173 97.9514 141.996 97.7633C141.818 97.5752 141.73 97.308 141.73 96.9715V94.9127H139.818V96.9418C139.818 97.3377 139.729 97.6247 139.561 97.793C139.384 97.9613 139.098 98.0405 138.694 98.0405H138.615H137.294C137.354 97.5357 137.383 97.0704 137.383 96.6646C137.383 95.8332 137.156 95.17 136.713 94.6652C136.26 94.1604 135.56 93.903 134.614 93.903C133.224 93.903 132.002 94.4969 130.937 95.6847V90.5674H129.025V98.0405H126.601C126.827 97.6247 126.946 97.1397 126.946 96.5953C126.946 96.0212 126.817 95.5065 126.551 95.0611C126.285 94.6157 125.921 94.2693 125.457 94.0218C124.994 93.7744 124.462 93.6556 123.87 93.6556C123.279 93.6556 122.747 93.7744 122.284 94.0218C121.82 94.2693 121.466 94.6157 121.199 95.0611C120.943 95.5065 120.815 96.0212 120.815 96.5953C120.815 97.1694 120.933 97.6445 121.16 98.0405H100.492C100.078 98.0405 99.7821 97.9514 99.6047 97.7633C99.4273 97.5752 99.3386 97.308 99.3386 96.9715V93.6655H96.5198C95.8791 93.6655 95.3272 93.7942 94.8442 94.0416C94.3613 94.2891 93.9966 94.6355 93.7305 95.0809C93.4644 95.5263 93.3362 96.0311 93.3362 96.6052C93.3362 97.1793 93.4644 97.6841 93.7206 98.1295C93.9769 98.575 94.3317 98.9214 94.7851 99.1787C95.2385 99.4262 95.7608 99.5549 96.3522 99.5549C96.707 99.5549 97.0323 99.5153 97.328 99.4262C97.6236 99.347 97.9095 99.1787 98.1855 98.9412C98.6487 99.347 99.3288 99.5549 100.206 99.5549H138.921C139.394 99.5549 139.808 99.4955 140.143 99.3668C140.488 99.2381 140.784 99.0501 141.03 98.7828C141.197 99.0204 141.434 99.2183 141.73 99.3569C142.025 99.4955 142.37 99.5648 142.774 99.5648H146.717C147.377 99.5648 147.959 99.446 148.461 99.1985C148.964 98.961 149.348 98.6145 149.615 98.1691C149.891 97.7237 150.019 97.209 150.019 96.6151C150.019 96.0212 149.891 95.5263 149.624 95.0809L149.605 95.0611ZM96.9731 97.9316C96.8154 98.0009 96.6282 98.0306 96.4311 98.0306C96.0467 98.0306 95.7608 97.9019 95.5539 97.6544C95.3469 97.407 95.2483 97.0506 95.2483 96.5854C95.2483 95.6253 95.682 95.1403 96.5592 95.1403H97.4068V96.922C97.4068 97.1892 97.4265 97.407 97.4561 97.5851C97.2984 97.7435 97.1308 97.8623 96.9731 97.9217V97.9316ZM124.689 97.6544C124.482 97.9118 124.206 98.0405 123.851 98.0405C123.496 98.0405 123.2 97.9118 122.993 97.6544C122.786 97.3971 122.678 97.0506 122.678 96.5953C122.678 96.14 122.786 95.8035 122.993 95.5461C123.2 95.2888 123.486 95.1601 123.851 95.1601C124.215 95.1601 124.472 95.2888 124.679 95.5461C124.886 95.8035 124.994 96.1598 124.994 96.5953C124.994 97.0308 124.895 97.3971 124.689 97.6544ZM135.461 98.0306H130.918C131.42 97.1496 131.962 96.4964 132.554 96.0608C133.145 95.6253 133.687 95.4076 134.18 95.4076C134.643 95.4076 134.968 95.5263 135.166 95.7639C135.363 96.0014 135.461 96.3578 135.461 96.823C135.461 97.0012 135.461 97.1298 135.451 97.2189V97.6346C135.442 97.8128 135.451 97.9415 135.461 98.0306ZM147.762 97.6544C147.555 97.9118 147.279 98.0405 146.924 98.0405C146.569 98.0405 146.273 97.9118 146.066 97.6544C145.859 97.3971 145.751 97.0506 145.751 96.5953C145.751 96.14 145.85 95.8035 146.066 95.5461C146.273 95.2888 146.559 95.1601 146.924 95.1601C147.289 95.1601 147.545 95.2888 147.752 95.5461C147.959 95.8035 148.067 96.1598 148.067 96.5953C148.067 97.0308 147.969 97.3971 147.762 97.6544Z" fill="#686969"></path><path d="M45.259 84.1735V54.6573L43.6524 52.2422C39.5523 46.1054 39.5523 38.0879 43.6524 31.9412L45.259 29.5261V0H38.5568V29.5162L23.8614 3.95924L18.0561 7.3246L32.7516 32.8914L7.29327 18.1234L3.9422 23.9534L29.4005 38.7115H-0.000244141V45.4422H29.3906L3.9422 60.2102L7.29327 66.0402L32.7516 51.2821L18.0561 76.8489L23.8614 80.2143L38.5568 54.6474V84.1636H45.259V84.1735Z" fill="#703CF8"></path></g><defs><clipPath id="clip0_454_1738"><rect width="150" height="102" fill="white" transform="translate(-0.000244141)"></rect></clipPath></defs></svg>